<mxfile host="app.diagrams.net" agent="Mozilla/5.0 (Macintosh; Intel Mac OS X 10_15_7) AppleWebKit/537.36 (KHTML, like Gecko) Chrome/138.0.0.0 Safari/537.36" version="28.0.4">
  <diagram name="Page-1" id="L-ZTnXURkHKv2uubeZ0x">
    <mxGraphModel dx="2065" dy="1676" grid="1" gridSize="10" guides="1" tooltips="1" connect="1" arrows="1" fold="1" page="1" pageScale="1" pageWidth="850" pageHeight="1100" math="0" shadow="0">
      <root>
        <mxCell id="0" />
        <mxCell id="1" parent="0" />
        <mxCell id="Rxi2usnhp1qSNVlFDy_F-10" value="Private subnet" style="points=[[0,0],[0.25,0],[0.5,0],[0.75,0],[1,0],[1,0.25],[1,0.5],[1,0.75],[1,1],[0.75,1],[0.5,1],[0.25,1],[0,1],[0,0.75],[0,0.5],[0,0.25]];outlineConnect=0;gradientColor=none;html=1;whiteSpace=wrap;fontSize=12;fontStyle=0;container=1;pointerEvents=0;collapsible=0;recursiveResize=0;shape=mxgraph.aws4.group;grIcon=mxgraph.aws4.group_security_group;grStroke=0;strokeColor=#00A4A6;fillColor=#E6F6F7;verticalAlign=top;align=left;spacingLeft=30;fontColor=#147EBA;dashed=0;" parent="1" vertex="1">
          <mxGeometry x="430" y="70" width="500" height="450" as="geometry" />
        </mxCell>
        <mxCell id="Rxi2usnhp1qSNVlFDy_F-14" value="" style="endArrow=blockThin;html=1;strokeColor=#475E75;bendable=1;rounded=0;endFill=1;endSize=4;strokeWidth=1.5;startSize=4;startArrow=none;startFill=0;exitX=1;exitY=0.5;exitDx=0;exitDy=0;" parent="Rxi2usnhp1qSNVlFDy_F-10" source="Rxi2usnhp1qSNVlFDy_F-12" edge="1">
          <mxGeometry relative="1" as="geometry">
            <mxPoint x="-67" y="187.5" as="targetPoint" />
            <mxPoint x="38" y="187.5" as="sourcePoint" />
          </mxGeometry>
        </mxCell>
        <mxCell id="Rxi2usnhp1qSNVlFDy_F-27" value="" style="edgeStyle=orthogonalEdgeStyle;rounded=0;orthogonalLoop=1;jettySize=auto;html=1;" parent="Rxi2usnhp1qSNVlFDy_F-10" source="Rxi2usnhp1qSNVlFDy_F-12" edge="1">
          <mxGeometry relative="1" as="geometry">
            <mxPoint x="20" y="188" as="targetPoint" />
          </mxGeometry>
        </mxCell>
        <mxCell id="Rxi2usnhp1qSNVlFDy_F-12" value="HTTPS" style="rounded=1;whiteSpace=wrap;html=1;arcSize=38;strokeColor=#475E75;fillColor=#F5F6F7;strokeWidth=1.5;fontColor=#475E75;fontStyle=1;fontSize=10;" parent="Rxi2usnhp1qSNVlFDy_F-10" vertex="1">
          <mxGeometry x="-80" y="180" width="40" height="16" as="geometry" />
        </mxCell>
        <mxCell id="Rxi2usnhp1qSNVlFDy_F-20" value="" style="sketch=0;points=[[0,0,0],[0.25,0,0],[0.5,0,0],[0.75,0,0],[1,0,0],[0,1,0],[0.25,1,0],[0.5,1,0],[0.75,1,0],[1,1,0],[0,0.25,0],[0,0.5,0],[0,0.75,0],[1,0.25,0],[1,0.5,0],[1,0.75,0]];outlineConnect=0;fontColor=#232F3E;fillColor=#E7157B;strokeColor=#ffffff;dashed=0;verticalLabelPosition=bottom;verticalAlign=top;align=center;html=1;fontSize=12;fontStyle=0;aspect=fixed;shape=mxgraph.aws4.resourceIcon;resIcon=mxgraph.aws4.api_gateway;" parent="Rxi2usnhp1qSNVlFDy_F-10" vertex="1">
          <mxGeometry x="30" y="164" width="48" height="48" as="geometry" />
        </mxCell>
        <mxCell id="Rxi2usnhp1qSNVlFDy_F-28" value="" style="sketch=0;points=[[0,0,0],[0.25,0,0],[0.5,0,0],[0.75,0,0],[1,0,0],[0,1,0],[0.25,1,0],[0.5,1,0],[0.75,1,0],[1,1,0],[0,0.25,0],[0,0.5,0],[0,0.75,0],[1,0.25,0],[1,0.5,0],[1,0.75,0]];outlineConnect=0;fontColor=#232F3E;fillColor=#ED7100;strokeColor=#ffffff;dashed=0;verticalLabelPosition=bottom;verticalAlign=top;align=center;html=1;fontSize=12;fontStyle=0;aspect=fixed;shape=mxgraph.aws4.resourceIcon;resIcon=mxgraph.aws4.lambda;" parent="Rxi2usnhp1qSNVlFDy_F-10" vertex="1">
          <mxGeometry x="120" y="30" width="48" height="48" as="geometry" />
        </mxCell>
        <mxCell id="Rxi2usnhp1qSNVlFDy_F-29" value="" style="sketch=0;points=[[0,0,0],[0.25,0,0],[0.5,0,0],[0.75,0,0],[1,0,0],[0,1,0],[0.25,1,0],[0.5,1,0],[0.75,1,0],[1,1,0],[0,0.25,0],[0,0.5,0],[0,0.75,0],[1,0.25,0],[1,0.5,0],[1,0.75,0]];outlineConnect=0;fontColor=#232F3E;fillColor=#C925D1;strokeColor=#ffffff;dashed=0;verticalLabelPosition=bottom;verticalAlign=top;align=center;html=1;fontSize=12;fontStyle=0;aspect=fixed;shape=mxgraph.aws4.resourceIcon;resIcon=mxgraph.aws4.dynamodb;" parent="Rxi2usnhp1qSNVlFDy_F-10" vertex="1">
          <mxGeometry x="118" y="110" width="52" height="52" as="geometry" />
        </mxCell>
        <mxCell id="Rxi2usnhp1qSNVlFDy_F-30" value="" style="sketch=0;points=[[0,0,0],[0.25,0,0],[0.5,0,0],[0.75,0,0],[1,0,0],[0,1,0],[0.25,1,0],[0.5,1,0],[0.75,1,0],[1,1,0],[0,0.25,0],[0,0.5,0],[0,0.75,0],[1,0.25,0],[1,0.5,0],[1,0.75,0]];outlineConnect=0;fontColor=#232F3E;fillColor=#ED7100;strokeColor=#ffffff;dashed=0;verticalLabelPosition=bottom;verticalAlign=top;align=center;html=1;fontSize=12;fontStyle=0;aspect=fixed;shape=mxgraph.aws4.resourceIcon;resIcon=mxgraph.aws4.ec2;" parent="Rxi2usnhp1qSNVlFDy_F-10" vertex="1">
          <mxGeometry x="120" y="190" width="50" height="50" as="geometry" />
        </mxCell>
        <mxCell id="Rxi2usnhp1qSNVlFDy_F-31" value="" style="sketch=0;points=[[0,0,0],[0.25,0,0],[0.5,0,0],[0.75,0,0],[1,0,0],[0,1,0],[0.25,1,0],[0.5,1,0],[0.75,1,0],[1,1,0],[0,0.25,0],[0,0.5,0],[0,0.75,0],[1,0.25,0],[1,0.5,0],[1,0.75,0]];outlineConnect=0;fontColor=#232F3E;fillColor=#7AA116;strokeColor=#ffffff;dashed=0;verticalLabelPosition=bottom;verticalAlign=top;align=center;html=1;fontSize=12;fontStyle=0;aspect=fixed;shape=mxgraph.aws4.resourceIcon;resIcon=mxgraph.aws4.s3;" parent="Rxi2usnhp1qSNVlFDy_F-10" vertex="1">
          <mxGeometry x="120" y="270" width="48" height="48" as="geometry" />
        </mxCell>
        <mxCell id="Rxi2usnhp1qSNVlFDy_F-32" value="" style="sketch=0;points=[[0,0,0],[0.25,0,0],[0.5,0,0],[0.75,0,0],[1,0,0],[0,1,0],[0.25,1,0],[0.5,1,0],[0.75,1,0],[1,1,0],[0,0.25,0],[0,0.5,0],[0,0.75,0],[1,0.25,0],[1,0.5,0],[1,0.75,0]];outlineConnect=0;fontColor=#232F3E;fillColor=#8C4FFF;strokeColor=#ffffff;dashed=0;verticalLabelPosition=bottom;verticalAlign=top;align=center;html=1;fontSize=12;fontStyle=0;aspect=fixed;shape=mxgraph.aws4.resourceIcon;resIcon=mxgraph.aws4.direct_connect;" parent="Rxi2usnhp1qSNVlFDy_F-10" vertex="1">
          <mxGeometry x="120" y="350" width="58" height="58" as="geometry" />
        </mxCell>
        <mxCell id="Rxi2usnhp1qSNVlFDy_F-34" value="" style="sketch=0;points=[[0,0,0],[0.25,0,0],[0.5,0,0],[0.75,0,0],[1,0,0],[0,1,0],[0.25,1,0],[0.5,1,0],[0.75,1,0],[1,1,0],[0,0.25,0],[0,0.5,0],[0,0.75,0],[1,0.25,0],[1,0.5,0],[1,0.75,0]];outlineConnect=0;fontColor=#232F3E;fillColor=#DD344C;strokeColor=#ffffff;dashed=0;verticalLabelPosition=bottom;verticalAlign=top;align=center;html=1;fontSize=12;fontStyle=0;aspect=fixed;shape=mxgraph.aws4.resourceIcon;resIcon=mxgraph.aws4.directory_service;" parent="Rxi2usnhp1qSNVlFDy_F-10" vertex="1">
          <mxGeometry x="290" y="190" width="54" height="54" as="geometry" />
        </mxCell>
        <mxCell id="Rxi2usnhp1qSNVlFDy_F-38" value="" style="endArrow=classic;startArrow=classic;html=1;rounded=0;exitX=1;exitY=0.5;exitDx=0;exitDy=0;exitPerimeter=0;" parent="Rxi2usnhp1qSNVlFDy_F-10" edge="1">
          <mxGeometry width="50" height="50" relative="1" as="geometry">
            <mxPoint x="170" y="214.5" as="sourcePoint" />
            <mxPoint x="290" y="215" as="targetPoint" />
            <Array as="points" />
          </mxGeometry>
        </mxCell>
        <mxCell id="Rxi2usnhp1qSNVlFDy_F-42" value="" style="sketch=0;outlineConnect=0;fontColor=#232F3E;gradientColor=none;fillColor=#DD344C;strokeColor=none;dashed=0;verticalLabelPosition=bottom;verticalAlign=top;align=center;html=1;fontSize=12;fontStyle=0;aspect=fixed;pointerEvents=1;shape=mxgraph.aws4.role;" parent="1" vertex="1">
          <mxGeometry x="380" y="160" width="78" height="44" as="geometry" />
        </mxCell>
        <mxCell id="Rxi2usnhp1qSNVlFDy_F-43" value="" style="sketch=0;outlineConnect=0;fontColor=#232F3E;gradientColor=none;fillColor=#DD344C;strokeColor=none;dashed=0;verticalLabelPosition=bottom;verticalAlign=top;align=center;html=1;fontSize=12;fontStyle=0;aspect=fixed;pointerEvents=1;shape=mxgraph.aws4.role;" parent="1" vertex="1">
          <mxGeometry x="-110" y="183" width="78" height="44" as="geometry" />
        </mxCell>
        <mxCell id="Rxi2usnhp1qSNVlFDy_F-44" value="Security group" style="fillColor=none;strokeColor=#DD3522;verticalAlign=top;fontStyle=0;fontColor=#DD3522;whiteSpace=wrap;html=1;" parent="1" vertex="1">
          <mxGeometry x="700" y="227" width="100" height="113" as="geometry" />
        </mxCell>
        <mxCell id="ezl-Rs8Sh3dO4E1CpPTI-4" value="Private subnet" style="points=[[0,0],[0.25,0],[0.5,0],[0.75,0],[1,0],[1,0.25],[1,0.5],[1,0.75],[1,1],[0.75,1],[0.5,1],[0.25,1],[0,1],[0,0.75],[0,0.5],[0,0.25]];outlineConnect=0;gradientColor=none;html=1;whiteSpace=wrap;fontSize=12;fontStyle=0;container=1;pointerEvents=0;collapsible=0;recursiveResize=0;shape=mxgraph.aws4.group;grIcon=mxgraph.aws4.group_security_group;grStroke=0;strokeColor=#00A4A6;fillColor=#E6F6F7;verticalAlign=top;align=left;spacingLeft=30;fontColor=#147EBA;dashed=0;" vertex="1" parent="1">
          <mxGeometry x="-130" y="-710" width="840" height="680" as="geometry" />
        </mxCell>
        <mxCell id="ezl-Rs8Sh3dO4E1CpPTI-9" value="AWS Iot&#xa;Greengrass" style="points=[[0,0],[0.25,0],[0.5,0],[0.75,0],[1,0],[1,0.25],[1,0.5],[1,0.75],[1,1],[0.75,1],[0.5,1],[0.25,1],[0,1],[0,0.75],[0,0.5],[0,0.25]];outlineConnect=0;gradientColor=none;html=1;whiteSpace=wrap;fontSize=12;fontStyle=0;container=1;pointerEvents=0;collapsible=0;recursiveResize=0;shape=mxgraph.aws4.group;grIcon=mxgraph.aws4.group_iot_greengrass;strokeColor=#7AA116;fillColor=none;verticalAlign=top;align=left;spacingLeft=30;fontColor=#3F8624;dashed=0;" vertex="1" parent="ezl-Rs8Sh3dO4E1CpPTI-4">
          <mxGeometry x="30" y="190" width="70" height="50" as="geometry" />
        </mxCell>
        <mxCell id="ezl-Rs8Sh3dO4E1CpPTI-8" value="" style="rounded=1;arcSize=7;dashed=1;strokeColor=#ff0000;fillColor=none;gradientColor=none;dashPattern=8 4;strokeWidth=2;" vertex="1" parent="ezl-Rs8Sh3dO4E1CpPTI-4">
          <mxGeometry x="460" y="80" width="240" height="300" as="geometry" />
        </mxCell>
        <mxCell id="ezl-Rs8Sh3dO4E1CpPTI-10" value="AWS Directory Service" style="sketch=0;outlineConnect=0;fontColor=#232F3E;gradientColor=none;strokeColor=#ffffff;fillColor=#232F3E;dashed=0;verticalLabelPosition=middle;verticalAlign=bottom;align=center;html=1;whiteSpace=wrap;fontSize=10;fontStyle=1;spacing=3;shape=mxgraph.aws4.productIcon;prIcon=mxgraph.aws4.directory_service;" vertex="1" parent="ezl-Rs8Sh3dO4E1CpPTI-4">
          <mxGeometry x="574" y="270" width="80" height="110" as="geometry" />
        </mxCell>
        <mxCell id="ezl-Rs8Sh3dO4E1CpPTI-11" value="" style="sketch=0;points=[[0,0,0],[0.25,0,0],[0.5,0,0],[0.75,0,0],[1,0,0],[0,1,0],[0.25,1,0],[0.5,1,0],[0.75,1,0],[1,1,0],[0,0.25,0],[0,0.5,0],[0,0.75,0],[1,0.25,0],[1,0.5,0],[1,0.75,0]];outlineConnect=0;fontColor=#232F3E;fillColor=#ED7100;strokeColor=#ffffff;dashed=0;verticalLabelPosition=bottom;verticalAlign=top;align=center;html=1;fontSize=12;fontStyle=0;aspect=fixed;shape=mxgraph.aws4.resourceIcon;resIcon=mxgraph.aws4.outposts_1u_and_2u_servers;" vertex="1" parent="ezl-Rs8Sh3dO4E1CpPTI-4">
          <mxGeometry x="480" y="112" width="78" height="78" as="geometry" />
        </mxCell>
        <mxCell id="ezl-Rs8Sh3dO4E1CpPTI-13" value="" style="image;aspect=fixed;perimeter=ellipsePerimeter;html=1;align=center;shadow=0;dashed=0;spacingTop=3;image=img/lib/active_directory/database_partition_2.svg;" vertex="1" parent="ezl-Rs8Sh3dO4E1CpPTI-4">
          <mxGeometry x="350" y="306.5" width="50" height="37" as="geometry" />
        </mxCell>
        <mxCell id="ezl-Rs8Sh3dO4E1CpPTI-12" value="" style="image;aspect=fixed;perimeter=ellipsePerimeter;html=1;align=center;shadow=0;dashed=0;spacingTop=3;image=img/lib/active_directory/database_partition_2.svg;" vertex="1" parent="ezl-Rs8Sh3dO4E1CpPTI-4">
          <mxGeometry x="350" y="290" width="50" height="37" as="geometry" />
        </mxCell>
        <mxCell id="ezl-Rs8Sh3dO4E1CpPTI-14" value="AWS Iot&#xa;Greengrass" style="points=[[0,0],[0.25,0],[0.5,0],[0.75,0],[1,0],[1,0.25],[1,0.5],[1,0.75],[1,1],[0.75,1],[0.5,1],[0.25,1],[0,1],[0,0.75],[0,0.5],[0,0.25]];outlineConnect=0;gradientColor=none;html=1;whiteSpace=wrap;fontSize=12;fontStyle=0;container=1;pointerEvents=0;collapsible=0;recursiveResize=0;shape=mxgraph.aws4.group;grIcon=mxgraph.aws4.group_iot_greengrass;strokeColor=#7AA116;fillColor=none;verticalAlign=top;align=left;spacingLeft=30;fontColor=#3F8624;dashed=0;" vertex="1" parent="ezl-Rs8Sh3dO4E1CpPTI-4">
          <mxGeometry x="90" y="320" width="130" height="130" as="geometry" />
        </mxCell>
        <mxCell id="ezl-Rs8Sh3dO4E1CpPTI-3" value="" style="sketch=0;aspect=fixed;pointerEvents=1;shadow=0;dashed=0;html=1;strokeColor=none;labelPosition=center;verticalLabelPosition=bottom;verticalAlign=top;align=center;fillColor=#00188D;shape=mxgraph.mscae.enterprise.workstation_client" vertex="1" parent="1">
          <mxGeometry x="-320" y="-660" width="80" height="80" as="geometry" />
        </mxCell>
        <mxCell id="ezl-Rs8Sh3dO4E1CpPTI-1" value="AWS Cloud" style="sketch=0;outlineConnect=0;gradientColor=none;html=1;whiteSpace=wrap;fontSize=12;fontStyle=0;shape=mxgraph.aws4.group;grIcon=mxgraph.aws4.group_aws_cloud;strokeColor=#858B94;fillColor=none;verticalAlign=top;align=left;spacingLeft=30;fontColor=#858B94;dashed=0;" vertex="1" parent="1">
          <mxGeometry x="-230" y="-810" width="1130" height="730" as="geometry" />
        </mxCell>
      </root>
    </mxGraphModel>
  </diagram>
</mxfile>
